<mxfile host="app.diagrams.net" modified="2021-07-05T06:40:00.497Z" agent="5.0 (Windows NT 10.0; Win64; x64) AppleWebKit/537.36 (KHTML, like Gecko) Chrome/91.0.4472.124 Safari/537.36 Edg/91.0.864.64" etag="Zh9qWlECUDo1hV6LD5KI" version="14.8.3" type="github">
  <diagram id="NlA3gRE_fuQO7--18hkW" name="Client Side Request">
    <mxGraphModel dx="1102" dy="663" grid="1" gridSize="10" guides="1" tooltips="1" connect="1" arrows="1" fold="1" page="1" pageScale="1" pageWidth="1169" pageHeight="1654" math="0" shadow="0">
      <root>
        <mxCell id="0" />
        <mxCell id="1" parent="0" />
        <mxCell id="oMbXFaHzuUlfp1lvWc5A-46" value="" style="edgeStyle=none;rounded=0;orthogonalLoop=1;jettySize=auto;html=1;fontFamily=Bernina Sans Offc;fontSize=12;startArrow=none;startFill=0;endArrow=open;endFill=0;" edge="1" parent="1" source="oMbXFaHzuUlfp1lvWc5A-2" target="oMbXFaHzuUlfp1lvWc5A-42">
          <mxGeometry relative="1" as="geometry" />
        </mxCell>
        <mxCell id="oMbXFaHzuUlfp1lvWc5A-2" value="" style="shape=image;html=1;verticalAlign=top;verticalLabelPosition=bottom;labelBackgroundColor=#ffffff;imageAspect=0;aspect=fixed;image=https://cdn2.iconfinder.com/data/icons/social-media-and-payment/64/-36-128.png;sketch=0;" vertex="1" parent="1">
          <mxGeometry x="50" y="130" width="90" height="90" as="geometry" />
        </mxCell>
        <mxCell id="oMbXFaHzuUlfp1lvWc5A-3" value="How Browser sends HTTP requests to the web?" style="text;html=1;strokeColor=none;fillColor=none;align=center;verticalAlign=middle;whiteSpace=wrap;rounded=0;fontSize=16;fontStyle=0;fontFamily=Bernina Sans Offc;" vertex="1" parent="1">
          <mxGeometry x="220" y="40" width="460" height="20" as="geometry" />
        </mxCell>
        <mxCell id="oMbXFaHzuUlfp1lvWc5A-4" value="Browser" style="text;html=1;align=center;verticalAlign=middle;resizable=0;points=[];autosize=1;strokeColor=none;fontSize=16;fontFamily=Caveat;fontSource=https%3A%2F%2Ffonts.googleapis.com%2Fcss%3Ffamily%3DCaveat;" vertex="1" parent="1">
          <mxGeometry x="60" y="220" width="70" height="20" as="geometry" />
        </mxCell>
        <mxCell id="oMbXFaHzuUlfp1lvWc5A-7" value="&lt;font face=&quot;Caveat&quot; data-font-src=&quot;https://fonts.googleapis.com/css?family=Caveat&quot;&gt;Browser &lt;br&gt;Cache&lt;/font&gt;" style="text;html=1;align=center;verticalAlign=middle;resizable=0;points=[];autosize=1;strokeColor=none;fontSize=16;fontFamily=Tahoma;" vertex="1" parent="1">
          <mxGeometry x="315" y="202" width="60" height="50" as="geometry" />
        </mxCell>
        <mxCell id="oMbXFaHzuUlfp1lvWc5A-10" value="DNS Server" style="text;html=1;align=center;verticalAlign=middle;resizable=0;points=[];autosize=1;strokeColor=none;fontSize=16;fontFamily=Caveat;fontSource=https%3A%2F%2Ffonts.googleapis.com%2Fcss%3Ffamily%3DCaveat;" vertex="1" parent="1">
          <mxGeometry x="427.5" y="210" width="80" height="20" as="geometry" />
        </mxCell>
        <mxCell id="oMbXFaHzuUlfp1lvWc5A-16" value="" style="rounded=0;orthogonalLoop=1;jettySize=auto;html=1;fontFamily=Caveat;fontSource=https%3A%2F%2Ffonts.googleapis.com%2Fcss%3Ffamily%3DCaveat;fontSize=16;endArrow=open;endFill=0;" edge="1" parent="1" source="oMbXFaHzuUlfp1lvWc5A-11" target="oMbXFaHzuUlfp1lvWc5A-15">
          <mxGeometry relative="1" as="geometry" />
        </mxCell>
        <mxCell id="oMbXFaHzuUlfp1lvWc5A-11" value="" style="points=[[0.015,0.015,0],[0.985,0.015,0],[0.985,0.985,0],[0.015,0.985,0],[0.25,0,0],[0.5,0,0],[0.75,0,0],[1,0.25,0],[1,0.5,0],[1,0.75,0],[0.75,1,0],[0.5,1,0],[0.25,1,0],[0,0.75,0],[0,0.5,0],[0,0.25,0]];verticalLabelPosition=bottom;html=1;verticalAlign=top;aspect=fixed;align=center;pointerEvents=1;shape=mxgraph.cisco19.dns_server;strokeColor=#006EAF;fontFamily=Tahoma;fontSize=16;fillColor=#1ba1e2;fontColor=#ffffff;" vertex="1" parent="1">
          <mxGeometry x="520" y="150" width="27.500000000000004" height="50" as="geometry" />
        </mxCell>
        <mxCell id="oMbXFaHzuUlfp1lvWc5A-35" style="edgeStyle=none;rounded=0;orthogonalLoop=1;jettySize=auto;html=1;exitX=0.5;exitY=1;exitDx=0;exitDy=0;fontFamily=Bernina Sans Offc;fontSize=12;startArrow=none;startFill=0;endArrow=none;endFill=0;" edge="1" parent="1" source="oMbXFaHzuUlfp1lvWc5A-15">
          <mxGeometry relative="1" as="geometry">
            <mxPoint x="750" y="225" as="targetPoint" />
          </mxGeometry>
        </mxCell>
        <mxCell id="oMbXFaHzuUlfp1lvWc5A-15" value="TCP Connection" style="ellipse;whiteSpace=wrap;html=1;sketch=0;fontFamily=Caveat;fontSource=https%3A%2F%2Ffonts.googleapis.com%2Fcss%3Ffamily%3DCaveat;fontSize=16;fillColor=#ffffff;verticalAlign=middle;" vertex="1" parent="1">
          <mxGeometry x="700" y="145" width="100" height="60" as="geometry" />
        </mxCell>
        <mxCell id="oMbXFaHzuUlfp1lvWc5A-17" value="Initialtes" style="text;html=1;align=center;verticalAlign=middle;resizable=0;points=[];autosize=1;strokeColor=none;fontSize=16;fontFamily=Caveat;" vertex="1" parent="1">
          <mxGeometry x="590" y="150" width="70" height="20" as="geometry" />
        </mxCell>
        <mxCell id="oMbXFaHzuUlfp1lvWc5A-22" value="" style="rounded=0;orthogonalLoop=1;jettySize=auto;html=1;fontFamily=Caveat;fontSource=https%3A%2F%2Ffonts.googleapis.com%2Fcss%3Ffamily%3DCaveat;fontSize=16;endArrow=open;endFill=0;" edge="1" parent="1" source="oMbXFaHzuUlfp1lvWc5A-18" target="oMbXFaHzuUlfp1lvWc5A-21">
          <mxGeometry relative="1" as="geometry" />
        </mxCell>
        <mxCell id="oMbXFaHzuUlfp1lvWc5A-18" value="HTTP&#xa;protocol" style="outlineConnect=0;fontColor=#232F3E;gradientColor=none;strokeColor=#232F3E;fillColor=#ffffff;dashed=0;verticalLabelPosition=bottom;verticalAlign=top;align=center;html=1;fontSize=12;fontStyle=0;aspect=fixed;shape=mxgraph.aws4.resourceIcon;resIcon=mxgraph.aws4.http_protocol;sketch=0;fontFamily=Caveat;fontSource=https%3A%2F%2Ffonts.googleapis.com%2Fcss%3Ffamily%3DCaveat;" vertex="1" parent="1">
          <mxGeometry x="720" y="280" width="60" height="60" as="geometry" />
        </mxCell>
        <mxCell id="oMbXFaHzuUlfp1lvWc5A-28" style="edgeStyle=orthogonalEdgeStyle;rounded=0;orthogonalLoop=1;jettySize=auto;html=1;exitX=1;exitY=0.25;exitDx=0;exitDy=0;fontFamily=Caveat;fontSource=https%3A%2F%2Ffonts.googleapis.com%2Fcss%3Ffamily%3DCaveat;fontSize=16;endArrow=open;endFill=0;" edge="1" parent="1" source="oMbXFaHzuUlfp1lvWc5A-21">
          <mxGeometry relative="1" as="geometry">
            <mxPoint x="710" y="294" as="targetPoint" />
          </mxGeometry>
        </mxCell>
        <mxCell id="oMbXFaHzuUlfp1lvWc5A-21" value="" style="aspect=fixed;perimeter=ellipsePerimeter;html=1;align=center;shadow=0;dashed=0;spacingTop=3;image;image=img/lib/active_directory/web_server.svg;sketch=0;fontFamily=Caveat;fontSource=https%3A%2F%2Ffonts.googleapis.com%2Fcss%3Ffamily%3DCaveat;fontSize=16;fillColor=#ffffff;" vertex="1" parent="1">
          <mxGeometry x="360" y="272.5" width="60" height="75" as="geometry" />
        </mxCell>
        <mxCell id="oMbXFaHzuUlfp1lvWc5A-26" value="&lt;div style=&quot;font-size: 12px;&quot;&gt;The server handles the request&lt;/div&gt;&lt;div style=&quot;font-size: 12px;&quot;&gt;and sends back a response.&lt;/div&gt;" style="text;html=1;align=center;verticalAlign=middle;resizable=0;points=[];autosize=1;strokeColor=none;fontSize=12;fontFamily=Bernina Sans Offc;" vertex="1" parent="1">
          <mxGeometry x="301.25" y="347.5" width="180" height="30" as="geometry" />
        </mxCell>
        <mxCell id="oMbXFaHzuUlfp1lvWc5A-27" value="Web Server" style="text;html=1;align=center;verticalAlign=middle;resizable=0;points=[];autosize=1;strokeColor=none;fontSize=16;fontFamily=Caveat;fontSource=https%3A%2F%2Ffonts.googleapis.com%2Fcss%3Ffamily%3DCaveat;" vertex="1" parent="1">
          <mxGeometry x="347.5" y="252.5" width="80" height="20" as="geometry" />
        </mxCell>
        <mxCell id="oMbXFaHzuUlfp1lvWc5A-50" style="edgeStyle=none;rounded=0;orthogonalLoop=1;jettySize=auto;html=1;entryX=0;entryY=0.5;entryDx=0;entryDy=0;entryPerimeter=0;fontFamily=Bernina Sans Offc;fontSize=12;startArrow=none;startFill=0;endArrow=open;endFill=0;" edge="1" parent="1" source="oMbXFaHzuUlfp1lvWc5A-30" target="oMbXFaHzuUlfp1lvWc5A-11">
          <mxGeometry relative="1" as="geometry" />
        </mxCell>
        <mxCell id="oMbXFaHzuUlfp1lvWc5A-30" value="&lt;div style=&quot;font-size: 12px;&quot;&gt;If the requested URL&amp;nbsp;&lt;/div&gt;&lt;div style=&quot;font-size: 12px;&quot;&gt;is not in the cache&lt;/div&gt;" style="text;html=1;align=center;verticalAlign=middle;resizable=0;points=[];autosize=1;strokeColor=none;fontSize=12;fontFamily=Bernina Sans Offc;" vertex="1" parent="1">
          <mxGeometry x="370" y="160" width="130" height="30" as="geometry" />
        </mxCell>
        <mxCell id="oMbXFaHzuUlfp1lvWc5A-34" value="" style="edgeStyle=none;rounded=0;orthogonalLoop=1;jettySize=auto;html=1;fontFamily=Bernina Sans Offc;fontSize=12;startArrow=none;startFill=0;endArrow=open;endFill=0;" edge="1" parent="1" target="oMbXFaHzuUlfp1lvWc5A-18">
          <mxGeometry relative="1" as="geometry">
            <mxPoint x="750" y="257.5" as="sourcePoint" />
          </mxGeometry>
        </mxCell>
        <mxCell id="oMbXFaHzuUlfp1lvWc5A-31" value="&lt;div&gt;Once the TCP connection is established,&lt;/div&gt;&lt;div&gt;it is time to start transferring data!&lt;/div&gt;" style="text;html=1;align=center;verticalAlign=middle;resizable=0;points=[];autosize=1;strokeColor=none;fontSize=12;fontFamily=Bernina Sans Offc;" vertex="1" parent="1">
          <mxGeometry x="640" y="222.5" width="230" height="30" as="geometry" />
        </mxCell>
        <mxCell id="oMbXFaHzuUlfp1lvWc5A-36" value="" style="endArrow=none;dashed=1;html=1;fontFamily=Bernina Sans Offc;fontSize=12;" edge="1" parent="1">
          <mxGeometry width="50" height="50" relative="1" as="geometry">
            <mxPoint x="40" y="250" as="sourcePoint" />
            <mxPoint x="40" y="120" as="targetPoint" />
          </mxGeometry>
        </mxCell>
        <mxCell id="oMbXFaHzuUlfp1lvWc5A-37" value="" style="endArrow=none;dashed=1;html=1;fontFamily=Bernina Sans Offc;fontSize=12;" edge="1" parent="1">
          <mxGeometry width="50" height="50" relative="1" as="geometry">
            <mxPoint x="40" y="120" as="sourcePoint" />
            <mxPoint x="300" y="120" as="targetPoint" />
          </mxGeometry>
        </mxCell>
        <mxCell id="oMbXFaHzuUlfp1lvWc5A-39" value="" style="endArrow=none;dashed=1;html=1;fontFamily=Bernina Sans Offc;fontSize=12;startArrow=none;" edge="1" parent="1" source="oMbXFaHzuUlfp1lvWc5A-5">
          <mxGeometry width="50" height="50" relative="1" as="geometry">
            <mxPoint x="300" y="250" as="sourcePoint" />
            <mxPoint x="300" y="120" as="targetPoint" />
          </mxGeometry>
        </mxCell>
        <mxCell id="oMbXFaHzuUlfp1lvWc5A-40" value="" style="endArrow=none;dashed=1;html=1;fontFamily=Bernina Sans Offc;fontSize=12;" edge="1" parent="1">
          <mxGeometry width="50" height="50" relative="1" as="geometry">
            <mxPoint x="40" y="250" as="sourcePoint" />
            <mxPoint x="300" y="250" as="targetPoint" />
          </mxGeometry>
        </mxCell>
        <mxCell id="oMbXFaHzuUlfp1lvWc5A-41" value="&lt;font style=&quot;font-size: 12px&quot;&gt;Internal Browser Mechanism&lt;/font&gt;" style="text;html=1;align=center;verticalAlign=middle;resizable=0;points=[];autosize=1;strokeColor=none;fontSize=12;fontFamily=Bernina Sans Offc;fontStyle=0" vertex="1" parent="1">
          <mxGeometry x="80" y="252.5" width="170" height="20" as="geometry" />
        </mxCell>
        <mxCell id="oMbXFaHzuUlfp1lvWc5A-45" value="" style="edgeStyle=none;rounded=0;orthogonalLoop=1;jettySize=auto;html=1;fontFamily=Bernina Sans Offc;fontSize=12;startArrow=none;startFill=0;endArrow=open;endFill=0;" edge="1" parent="1" source="oMbXFaHzuUlfp1lvWc5A-42" target="oMbXFaHzuUlfp1lvWc5A-5">
          <mxGeometry relative="1" as="geometry" />
        </mxCell>
        <mxCell id="oMbXFaHzuUlfp1lvWc5A-42" value="" style="aspect=fixed;html=1;points=[];align=center;image;fontSize=12;image=img/lib/azure2/networking/Public_IP_Addresses.svg;sketch=0;fontFamily=Bernina Sans Offc;fillColor=#ffffff;" vertex="1" parent="1">
          <mxGeometry x="185" y="150" width="65" height="52" as="geometry" />
        </mxCell>
        <mxCell id="oMbXFaHzuUlfp1lvWc5A-48" style="edgeStyle=none;rounded=0;orthogonalLoop=1;jettySize=auto;html=1;exitX=1;exitY=0.5;exitDx=0;exitDy=0;exitPerimeter=0;fontFamily=Bernina Sans Offc;fontSize=12;startArrow=none;startFill=0;endArrow=none;endFill=0;" edge="1" parent="1" source="oMbXFaHzuUlfp1lvWc5A-5" target="oMbXFaHzuUlfp1lvWc5A-30">
          <mxGeometry relative="1" as="geometry" />
        </mxCell>
        <mxCell id="oMbXFaHzuUlfp1lvWc5A-52" style="edgeStyle=orthogonalEdgeStyle;curved=1;rounded=0;orthogonalLoop=1;jettySize=auto;html=1;exitX=0.81;exitY=0.1;exitDx=0;exitDy=0;exitPerimeter=0;fontFamily=Bernina Sans Offc;fontSize=12;startArrow=none;startFill=0;endArrow=none;endFill=0;entryX=1;entryY=0;entryDx=0;entryDy=0;" edge="1" parent="1" source="oMbXFaHzuUlfp1lvWc5A-5" target="oMbXFaHzuUlfp1lvWc5A-15">
          <mxGeometry relative="1" as="geometry">
            <mxPoint x="760" y="140" as="targetPoint" />
            <Array as="points">
              <mxPoint x="352" y="130" />
              <mxPoint x="785" y="130" />
            </Array>
          </mxGeometry>
        </mxCell>
        <mxCell id="oMbXFaHzuUlfp1lvWc5A-5" value="" style="verticalLabelPosition=bottom;html=1;verticalAlign=top;align=center;strokeColor=#006EAF;shape=mxgraph.azure.azure_cache;fontFamily=Tahoma;fontSize=16;fontColor=#ffffff;fillColor=none;" vertex="1" parent="1">
          <mxGeometry x="315" y="150" width="45" height="50" as="geometry" />
        </mxCell>
        <mxCell id="oMbXFaHzuUlfp1lvWc5A-43" value="" style="endArrow=none;dashed=1;html=1;fontFamily=Bernina Sans Offc;fontSize=12;" edge="1" parent="1" target="oMbXFaHzuUlfp1lvWc5A-5">
          <mxGeometry width="50" height="50" relative="1" as="geometry">
            <mxPoint x="300" y="250" as="sourcePoint" />
            <mxPoint x="300" y="120" as="targetPoint" />
          </mxGeometry>
        </mxCell>
        <mxCell id="oMbXFaHzuUlfp1lvWc5A-47" value="&lt;font face=&quot;Caveat&quot; data-font-src=&quot;https://fonts.googleapis.com/css?family=Caveat&quot; style=&quot;font-size: 16px&quot;&gt;Finding DNS&lt;/font&gt;" style="text;html=1;align=center;verticalAlign=middle;resizable=0;points=[];autosize=1;strokeColor=none;fontSize=12;fontFamily=Bernina Sans Offc;" vertex="1" parent="1">
          <mxGeometry x="172.5" y="220" width="90" height="20" as="geometry" />
        </mxCell>
        <mxCell id="oMbXFaHzuUlfp1lvWc5A-54" value="&lt;div&gt;If the requested URL&amp;nbsp;&lt;/div&gt;&lt;div&gt;is found in cache&lt;/div&gt;" style="text;html=1;align=center;verticalAlign=middle;resizable=0;points=[];autosize=1;strokeColor=none;fontSize=12;fontFamily=Bernina Sans Offc;" vertex="1" parent="1">
          <mxGeometry x="547.5" y="90" width="130" height="30" as="geometry" />
        </mxCell>
        <mxCell id="oMbXFaHzuUlfp1lvWc5A-55" value="HTTP Response" style="text;html=1;align=center;verticalAlign=middle;resizable=0;points=[];autosize=1;strokeColor=none;fontSize=16;fontFamily=Caveat;fontSource=https%3A%2F%2Ffonts.googleapis.com%2Fcss%3Ffamily%3DCaveat;" vertex="1" parent="1">
          <mxGeometry x="507.5" y="272.5" width="100" height="20" as="geometry" />
        </mxCell>
      </root>
    </mxGraphModel>
  </diagram>
</mxfile>
